<svg width="300" height="300" viewBox="0 0 300 300" fill="none" xmlns="http://www.w3.org/2000/svg">
  <rect width="300" height="300" fill="#F3F4F6"/>
  <path d="M150 100C133.431 100 120 113.431 120 130C120 146.569 133.431 160 150 160C166.569 160 180 146.569 180 130C180 113.431 166.569 100 150 100ZM150 150C140.059 150 132 141.941 132 132C132 122.059 140.059 114 150 114C159.941 114 168 122.059 168 132C168 141.941 159.941 150 150 150Z" fill="#9CA3AF"/>
  <path d="M200 180H100C95.5817 180 92 183.582 92 188V200C92 204.418 95.5817 208 100 208H200C204.418 208 208 204.418 208 200V188C208 183.582 204.418 180 200 180Z" fill="#9CA3AF"/>
  <path d="M150 70C138.954 70 130 78.9543 130 90C130 101.046 138.954 110 150 110C161.046 110 170 101.046 170 90C170 78.9543 161.046 70 150 70Z" fill="#9CA3AF"/>
</svg>
